<svg xmlns="http://www.w3.org/2000/svg" width="10" height="23" viewBox="0 0 10 23">
    <path fill="#9B9B9B" fill-rule="evenodd" d="M7.277 4.06c.506 0 1.195.1 1.754.23.13.028.273 0 .39-.087a.534.534 0 0 0 .208-.373l.35-2.797c.026-.258-.116-.53-.363-.603A9.728 9.728 0 0 0 6.692 0C3.586 0 2.079 1.635 2.079 5.021v1.478H.494c-.273 0-.494.244-.494.545v2.869c0 .316.22.56.494.56h1.585V21.49c0 .301.221.545.494.545H5.82c.26 0 .481-.244.481-.545V10.472h2.625c.26 0 .468-.23.494-.516l.182-2.87a.586.586 0 0 0-.13-.415.446.446 0 0 0-.351-.172h-2.82V5.236c0-.947.091-1.176.975-1.176z"/>
</svg>
