<svg xmlns="http://www.w3.org/2000/svg" width="21" height="21" viewBox="0 0 21 21">
    <path fill="#9B9B9B" fill-rule="evenodd" d="M3.116 7.874v10.008H6.22V7.876c-1.035-.006-2.069-.001-3.103-.002m9.187.252c-.437.264-.82.63-1.068 1.078-.016.034-.044.05-.083.049-.004-.46.005-.92-.005-1.38-.99.002-1.979-.004-2.968.003v10.006h3.1v-4.744a7.847 7.847 0 0 1 .034-.934c.051-.434.153-.88.42-1.237.263-.369.714-.567 1.158-.598.418-.043.873-.001 1.222.256.33.242.498.641.576 1.032.11.524.087 1.063.09 1.595v4.63h3.123v-5.099c.001-.958-.013-1.933-.284-2.86-.16-.537-.423-1.056-.837-1.442-.421-.41-.983-.644-1.553-.755a5.74 5.74 0 0 0-1.098-.097c-.638.008-1.28.162-1.827.497M4.369 2.918a1.806 1.806 0 0 0-1.337 2.535c.171.373.47.687.841.865a1.8 1.8 0 0 0 1.571.013c.744-.334 1.191-1.22.997-2.015a1.811 1.811 0 0 0-2.072-1.398M1.446 0c6.035.003 12.07 0 18.106.001.388.041.77.201 1.04.49.193.204.326.464.376.74.035.172.025.35.027.525v17.132c-.002.228.005.456-.004.684-.027.477-.3.928-.706 1.18a1.74 1.74 0 0 1-.734.247c-6.035 0-12.07-.001-18.105.001a5.63 5.63 0 0 0-.318-.05l-.004-.002-.064-.021-.015-.001c-.025-.046-.076-.062-.125-.053a4.056 4.056 0 0 0-.083-.044l-.009-.004a1.522 1.522 0 0 1-.802-1.062C-.005 19.61.001 19.454 0 19.3V1.48C-.004.89.396.336.94.12A.194.194 0 0 0 .95.115L.965.108l.07-.032.014-.003C1.182.05 1.313.02 1.446 0"/>
</svg>
