<svg xmlns="http://www.w3.org/2000/svg" xmlns:xlink="http://www.w3.org/1999/xlink" width="148" height="39" viewBox="0 0 148 39">
    <defs>
        <path id="a" d="M.18 0h38.914v39H.18V0z"/>
        <path id="c" d="M3.91 3.632V.106H.026v3.526h3.882z"/>
    </defs>
    <g fill="none" fill-rule="evenodd">
        <path fill="#D2296B" d="M5.924 21.657c1.433.036 2.86-.144 4.274-.349.31-.06.652-.074.907-.283.035-1.413-1.1-2.792-2.527-2.913-1.768-.142-3.166 1.924-2.654 3.545m-.134-7.673c2.025-.68 4.293-.761 6.303.017 3.398 1.353 5.73 5.066 5.317 8.733-.069.67-.493 1.384-1.225 1.444-3.375.392-6.76.711-10.148.963.278.547.56 1.136 1.087 1.491 1.244.858 2.858.961 4.303.672 1.236-.254 2.291-.976 3.34-1.64a14.835 14.835 0 0 1 2.166 4.053c-.603.752-1.351 1.395-2.228 1.804-2.11 1-4.531 1.116-6.817.86-2.675-.328-5.2-1.856-6.602-4.183C.512 26.934.176 25.464 0 24.008V22.19c.134-1.082.305-2.17.711-3.19.888-2.281 2.744-4.22 5.079-5.015M18.609 14.72c1.052-.176 2.113-.021 3.17-.006.661.033 1.328-.028 1.987.05.335.155.545.474.774.748.786 1.036 1.642 2.014 2.504 2.986.82-1.032 1.659-2.049 2.42-3.128.23-.358.59-.684 1.05-.627 1.499.038 2.995-.125 4.492-.095.281-.016.516.2.466.49.014 1.052.02 2.108-.004 3.16-.011.562-.547.888-.88 1.27C33.39 20.75 32.26 22 31.1 23.218c1.255 1.267 2.428 2.614 3.664 3.902.311.354.73.718.71 1.235.02.88-.002 1.758.009 2.637-.019.283.039.608-.145.854-1.203.35-2.467.258-3.701.256-.67-.05-1.493-.056-1.93-.655-.872-1.215-1.727-2.442-2.603-3.654a408.194 408.194 0 0 1-2.942 3.714c-.374.507-1.054.548-1.629.591-1.314.006-2.686.144-3.93-.382.011-1.125-.018-2.249.013-3.374-.02-.388.255-.696.497-.965 1.361-1.403 2.676-2.85 4.012-4.275-1.33-1.34-2.772-2.57-4.013-3.995-.233-.287-.535-.584-.503-.983-.022-1.135.002-2.271 0-3.406M117.868 23.1c.848-2.034 1.647-4.09 2.517-6.115.035 1.925.15 3.851.353 5.766a92.65 92.65 0 0 1-2.87.349"/>
        <path fill="#828282" d="M91.678 7.003c1.562-.397 3.46.222 4.23 1.704.515.985.413 2.211-.103 3.174-.432.77-1.297 1.16-2.137 1.286-1.234.224-2.629.04-3.613-.792-1.35-1.112-1.337-3.476.026-4.573a4.12 4.12 0 0 1 1.597-.799M40.23 15.507c1.5-1.245 3.442-1.894 5.38-1.924 1.97-.077 4.017.338 5.65 1.489-.385 1.668-.828 3.33-1.417 4.941-1.545-.394-3.267-1.03-4.791-.224-1.672.818-2.12 3.029-1.505 4.665.479 1.21 1.73 1.982 2.998 2.08 1.195.167 2.323-.36 3.388-.822.698 1.719 1.014 3.587 1.113 5.432-1.03.758-2.33.931-3.556 1.146-2.889.511-6.063-.37-8.096-2.54-1.765-1.773-2.677-4.301-2.588-6.792-.09-2.84 1.203-5.682 3.424-7.451M74.544 14.97c2.047-.225 4.069-.622 6.09-1.025.2.765.303 1.549.44 2.327 1.402-.859 2.865-1.754 4.542-1.896.503-.023 1.136-.108 1.488.345-.13 1.747-.365 3.499-.203 5.255.015.429.134 1.05-.344 1.28-1.304.183-2.657-.198-3.941.162-.75.185-1.058 1.002-1.067 1.7-.04 1.56.024 3.122 0 4.682-.022 1.338.192 2.663.201 3.997-1.145.407-2.374.28-3.563.302-.98-.013-1.98 0-2.932-.257-.298-.677-.103-1.454-.153-2.17-.074-4.774.475-9.653-.813-14.318l.255-.385M54.017 14.704c1.726-.173 3.461-.002 5.19-.015.29.008.592-.002.872.1.162.662-.082 1.333-.121 1.998-.278 1.983-.192 3.991-.188 5.988.031.937.05 1.901.363 2.795.27.765 1.04 1.275 1.839 1.3 1.098.137 2.105-.552 2.766-1.37.522-.812.248-1.835.315-2.74.123-2.678 0-5.36.09-8.037 1.926-.052 3.855-.037 5.782-.006.305.043.718-.074.904.25.136 1.603-.108 3.204-.132 4.805-.007 1.74-.182 3.477-.085 5.218.096 1.31.055 2.623.102 3.935.005.99.154 1.986-.041 2.967-1.707.387-3.476.224-5.21.224-.397-.046-.93.067-1.188-.323-.19-.679-.162-1.401-.315-2.091-1.564.977-3.133 2.11-5 2.392-1.821.2-3.891-.142-5.181-1.555-1.212-1.349-1.449-3.239-1.562-4.976-.06-1.633-.255-3.268-.108-4.902.119-2.003.154-4.068.908-5.957M88.949 14.693c1.491-.175 2.973.295 4.464.12.912-.096 1.83-.13 2.748-.112-.052 1.644-.307 3.273-.311 4.918-.296 4.055.047 8.114.035 12.17-1.26.434-2.604.28-3.909.31a12.33 12.33 0 0 1-2.62-.231c-.078-2.224.021-4.454.016-6.682.178-1.741-.058-3.482-.02-5.225-.014-1.764-.219-3.518-.403-5.268"/>
        <g transform="translate(100.156)">
            <mask id="b" fill="#fff">
                <use xlink:href="#a"/>
            </mask>
            <path fill="#D2296B" d="M37.51 3.08C36.207 1.317 34.124.229 31.96 0H7.23C5.41.246 3.642 1.034 2.373 2.387A7.773 7.773 0 0 0 .309 6.53C.127 7.516.192 8.522.186 9.517c-.002 7.148.004 14.3-.004 21.448-.013 1.94.65 3.894 1.937 5.357C3.47 37.901 5.473 38.817 7.525 39h24.244c1.47-.166 2.941-.612 4.136-1.513 1.83-1.3 2.951-3.438 3.19-5.653V7.15c-.185-1.46-.67-2.904-1.585-4.068" mask="url(#b)"/>
        </g>
        <path fill="#FFF" d="M118.883 18.932c.2-.067.3-.134.3-.201l-.9-5.414c-.067-.267-.15-.401-.25-.401-.068 0-.325.35-.775 1.053-.45.701-.934 1.487-1.45 2.356-.518.87-.985 1.696-1.401 2.481-.418.786-.625 1.262-.625 1.429 0 .134.05.218.15.25.032.034.083.05.15.05.466-.233.95-.442 1.45-.626.5-.183.983-.342 1.45-.476l1.6-.401.3-.1zm5.101-.802c2.867 0 4.301.3 4.301.902 0 .1-.067.184-.2.25a.442.442 0 0 1-.2.05c-.167 0-.509.026-1.025.076-.518.05-1.376.225-2.576.526 0 1.07.017 2.164.05 3.284.033 1.12.05 2.364.05 3.734 0 .836-.008 1.713-.025 2.632a32.922 32.922 0 0 1-.15 2.632 26.773 26.773 0 0 1-.325 2.306c-.134.702-.3 1.253-.5 1.654-.1.267-.192.443-.275.527-.084.083-.159.125-.225.125-.367 0-.567-.143-.6-.426-.034-.284-.068-.46-.1-.526 0-1.137-.093-2.349-.275-3.635a82.325 82.325 0 0 0-.65-3.885c-.25-1.303-.493-2.548-.726-3.735a26.311 26.311 0 0 1-.45-3.183 13.798 13.798 0 0 0-3.5 1.228c-1.068.552-1.985 1.112-2.751 1.68-.9.669-1.718 1.403-2.45 2.205-.301.368-.585.811-.851 1.329a12.066 12.066 0 0 0-.65 1.479 17.07 17.07 0 0 0-.6 1.704c0 .067-.05.15-.15.25a.398.398 0 0 1-.15.05c-.668 0-1.085-.183-1.25-.55-.168-.369-.251-.686-.251-.953.1-.935.317-1.955.65-3.058a41.745 41.745 0 0 1 1.2-3.409 78.96 78.96 0 0 1 1.501-3.509 62.291 62.291 0 0 1 1.65-3.359c1.3-2.54 2.734-5.113 4.301-7.72v-.501c0-.334.142-.735.425-1.203a6.59 6.59 0 0 1 1.076-1.329 8.286 8.286 0 0 1 1.375-1.078c.483-.3.908-.45 1.276-.45.1 0 .207.042.325.125.116.083.225.259.325.526.266 1.203.55 2.507.85 3.91.266 1.203.533 2.607.8 4.211s.516 3.309.75 5.114z"/>
        <path fill="#FFF" d="M131.186 18.43v6.016c-.067.3-.2.585-.4.852-.2.268-.4.485-.6.652-.234.234-.5.435-.8.601-.2.1-.334.15-.4.15-.134 0-.2-.016-.2-.05-.034-.032-.034-.066 0-.1-.1-.3-.168-.643-.2-1.027-.034-.384-.05-.777-.05-1.178 0-.802.04-1.638.124-2.507.083-.869.125-1.905.125-3.108-1.267.168-2.318.351-3.15.551-.5.134-.95.251-1.35.351-.401-.033-.635-.208-.701-.526a4.061 4.061 0 0 1-.1-.827c0-.401.083-.685.25-.852.066-.1.15-.167.25-.2.333-.101.75-.218 1.25-.352.867-.2 2.05-.384 3.551-.551.067-.602.108-1.094.125-1.479.017-.384.025-.727.025-1.028a6.6 6.6 0 0 0-.05-.802 5.688 5.688 0 0 1-.05-.702c0-.367.108-.668.325-.902.217-.233.708-.35 1.476-.35.1 0 .316.024.65.074.333.05.5.176.5.376 0 .335-.017.702-.05 1.103-.034.368-.067.81-.1 1.329a52.707 52.707 0 0 1-.15 1.78c0 .067.016.117.05.15.033.1.116.15.25.15.4 0 .825-.025 1.275-.075.45-.05.926-.075 1.426-.075.5 0 1 .05 1.5.15.1.134.242.268.425.401.183.134.275.435.275.902 0 .201-.042.351-.125.452-.083.1-.158.184-.225.25a.798.798 0 0 1-.35.1l-4.801.301z"/>
        <path fill="#828282" d="M142.035 1.522h-.944v-.67h2.703v.67h-.96v2.856h-.799z"/>
        <g transform="translate(144.09 .746)">
            <mask id="d" fill="#fff">
                <use xlink:href="#c"/>
            </mask>
            <path fill="#828282" d="M3.08 2.282A39.812 39.812 0 0 1 3.047.833h-.016c-.11.45-.255.952-.39 1.366l-.429 1.375h-.62L1.215 2.21A16.27 16.27 0 0 1 .898.833h-.01C.867 1.31.85 1.853.825 2.293L.763 3.632H.027L.25.106h1.06l.344 1.177c.11.408.219.847.297 1.26h.016c.1-.407.22-.873.334-1.265L2.678.106h1.038l.193 3.526h-.777l-.053-1.35z" mask="url(#d)"/>
        </g>
    </g>
</svg>
