<svg xmlns="http://www.w3.org/2000/svg" width="25" height="23" viewBox="0 0 25 23">
    <path fill="#9B9B9B" fill-rule="evenodd" d="M24.364 2.955c0-.244-.182-.459-.416-.459-.13 0-1.026.416-1.26.488.312-.402 1.026-1.621 1.026-2.138 0-.243-.182-.459-.416-.459a.403.403 0 0 0-.208.072c-.883.53-1.728.947-2.715 1.176C19.4.603 18.075 0 16.71 0c-2.884 0-5.25 2.597-5.25 5.796 0 .23.014.473.053.703-2.859-.273-5.575-1.593-7.706-3.702-.52-.516-.961-1.076-1.43-1.65-.103-.128-.194-.171-.35-.171-.143 0-.26.114-.325.229-.468.76-.714 1.994-.714 2.912 0 1.334.415 2.64 1.195 3.673-.247-.086-.624-.359-.845-.359a.506.506 0 0 0-.506.517c0 2.008 1 3.873 2.533 4.92-.116-.014-.22-.057-.337-.057-.221 0-.403.215-.403.445 0 .057.013.1.026.157.572 1.937 2 3.4 3.794 3.86a8.608 8.608 0 0 1-4.873 1.52c-.39 0-.78-.072-1.156-.072-.234 0-.416.215-.416.46 0 .157.078.286.195.387.338.272.754.502 1.13.717a13.056 13.056 0 0 0 6.497 1.75c5.666 0 10.513-3.357 12.852-9.066.844-2.052 1.338-4.304 1.299-6.556v-.474c.884-.731 1.741-1.678 2.326-2.726a.534.534 0 0 0 .065-.258z"/>
</svg>
